ffmpeg started on 2025-04-30 at 18:08:43
Report written to "D:\Convert\FFMetrics\reports\psnr_report-6.txt"
Log level: 32
Command line:
ffmpeg -hide_banner -nostdin -i "G:\\\xc0\xed\xe8\xec\xe5\\\xce\xed\xe3\xee\xe8\xed\xe3\xe8\\!_35_\xcb\xe5\xf2\xee_2024\\JamClub\\\xcc\xe5\xf7 \xe8 \xe6\xe5\xe7\xeb \xc2\xe8\xf1\xf2\xee\xf0\xe8\xe8\\JamClub_Tsue_to_Tsurugi_no_Wistoria_06_1080p_HEVC.mkv" -i "G:\\\xc0\xed\xe8\xec\xe5\\\xce\xed\xe3\xee\xe8\xed\xe3\xe8\\!_35_\xcb\xe5\xf2\xee_2024\\JamClub\\\xcc\xe5\xf7 \xe8 \xe6\xe5\xe7\xeb \xc2\xe8\xf1\xf2\xee\xf0\xe8\xe8\\JamClub_Tsue_to_Tsurugi_no_Wistoria_06_1080p.mp4" -lavfi "[0:v]settb=AVTB,setpts=PTS-STARTPTS,format=pix_fmts=yuv420p10,fps=24000/1001,scale=1920:1080:flags=bicubic[main];[1:v]settb=AVTB,setpts=PTS-STARTPTS,format=pix_fmts=yuv420p,fps=24000/1001,scale=1920:1080:flags=bicubic[ref];[main][ref]psnr=eof_action=endall:stats_file='D\\:/Convert/FFMetrics/logs/psnr_logfile-6.txt'" -f null -
Input #0, matroska,webm, from 'G:\Аниме\Онгоинги\!_35_Лето_2024\JamClub\Меч и жезл Вистории\JamClub_Tsue_to_Tsurugi_no_Wistoria_06_1080p_HEVC.mkv':
  Metadata:
    COMPATIBLE_BRANDS: isomiso2avc1mp41
    MAJOR_BRAND     : isom
    MINOR_VERSION   : 512
    ENCODER         : Lavf61.7.100
  Duration: 00:24:08.36, start: -0.001000, bitrate: 1517 kb/s
  Stream #0:0: Video: hevc (Main 10), yuv420p10le(tv, bt709, progressive), 1920x1080 [SAR 1:1 DAR 16:9], 23.98 fps, 23.98 tbr, 1k tbn (default)
      Metadata:
        HANDLER_NAME    : VideoHandler
        VENDOR_ID       : [0][0][0][0]
        ENCODER         : Lavc61.19.100 libx265
        BPS             : 1319824
        DURATION        : 00:24:08.279708333
        NUMBER_OF_FRAMES: 34724
        NUMBER_OF_BYTES : 238934292
        _STATISTICS_WRITING_APP: mkvpropedit v66.0.0 ('Josie') 64-bit
        _STATISTICS_WRITING_DATE_UTC: 2025-04-29 12:28:37
        _STATISTICS_TAGS: BPS DURATION NUMBER_OF_FRAMES NUMBER_OF_BYTES
  Stream #0:1(eng): Audio: aac (LC), 48000 Hz, stereo, fltp (default)
      Metadata:
        HANDLER_NAME    : SoundHandler
        VENDOR_ID       : [0][0][0][0]
        ENCODER         : Lavc61.19.100 aac
        BPS             : 193356
        DURATION        : 00:24:08.323000000
        NUMBER_OF_FRAMES: 67891
        NUMBER_OF_BYTES : 35005340
        _STATISTICS_WRITING_APP: mkvpropedit v66.0.0 ('Josie') 64-bit
        _STATISTICS_WRITING_DATE_UTC: 2025-04-29 12:28:37
        _STATISTICS_TAGS: BPS DURATION NUMBER_OF_FRAMES NUMBER_OF_BYTES
Input #1, mov,mp4,m4a,3gp,3g2,mj2, from 'G:\Аниме\Онгоинги\!_35_Лето_2024\JamClub\Меч и жезл Вистории\JamClub_Tsue_to_Tsurugi_no_Wistoria_06_1080p.mp4':
  Metadata:
    major_brand     : isom
    minor_version   : 512
    compatible_brands: isomiso2avc1mp41
    encoder         : Lavf60.16.100
  Duration: 00:24:08.34, start: 0.000000, bitrate: 4955 kb/s
  Stream #1:0[0x1](und): Video: h264 (High) (avc1 / 0x31637661), yuv420p(progressive), 1920x1080 [SAR 1:1 DAR 16:9], 4757 kb/s, 23.98 fps, 23.98 tbr, 90k tbn (default)
      Metadata:
        handler_name    : VideoHandler
        vendor_id       : [0][0][0][0]
  Stream #1:1[0x2](eng): Audio: aac (LC) (mp4a / 0x6134706D), 48000 Hz, stereo, fltp, 191 kb/s (default)
      Metadata:
        handler_name    : SoundHandler
        vendor_id       : [0][0][0][0]
Stream mapping:
  Stream #0:0 (hevc) -> settb:default
  Stream #1:0 (h264) -> settb:default
  psnr:default -> Stream #0:0 (wrapped_avframe)
  Stream #0:1 -> #0:1 (aac (native) -> pcm_s16le (native))
Output #0, null, to 'pipe:':
  Metadata:
    COMPATIBLE_BRANDS: isomiso2avc1mp41
    MAJOR_BRAND     : isom
    MINOR_VERSION   : 512
    encoder         : Lavf61.7.100
  Stream #0:0: Video: wrapped_avframe, yuv420p10le(tv, bt709, progressive), 1920x1080 [SAR 1:1 DAR 16:9], q=2-31, 200 kb/s, 23.98 fps, 23.98 tbn
      Metadata:
        encoder         : Lavc61.19.100 wrapped_avframe
  Stream #0:1(eng): Audio: pcm_s16le, 48000 Hz, stereo, s16, 1536 kb/s (default)
      Metadata:
        HANDLER_NAME    : SoundHandler
        VENDOR_ID       : [0][0][0][0]
        _STATISTICS_TAGS: BPS DURATION NUMBER_OF_FRAMES NUMBER_OF_BYTES
        BPS             : 193356
        DURATION        : 00:24:08.323000000
        NUMBER_OF_FRAMES: 67891
        NUMBER_OF_BYTES : 35005340
        _STATISTICS_WRITING_APP: mkvpropedit v66.0.0 ('Josie') 64-bit
        _STATISTICS_WRITING_DATE_UTC: 2025-04-29 12:28:37
        encoder         : Lavc61.19.100 pcm_s16le
frame=  113 fps=0.0 q=-0.0 size=N/A time=00:00:04.71 bitrate=N/A speed=9.14x    frame=  274 fps=267 q=-0.0 size=N/A time=00:00:11.42 bitrate=N/A speed=11.1x    frame=  473 fps=306 q=-0.0 size=N/A time=00:00:19.72 bitrate=N/A speed=12.7x    frame=  697 fps=339 q=-0.0 size=N/A time=00:00:29.07 bitrate=N/A speed=14.1x    frame=  924 fps=358 q=-0.0 size=N/A time=00:00:38.53 bitrate=N/A speed=14.9x    frame= 1144 fps=370 q=-0.0 size=N/A time=00:00:47.71 bitrate=N/A speed=15.4x    frame= 1353 fps=376 q=-0.0 size=N/A time=00:00:56.43 bitrate=N/A speed=15.7x    frame= 1612 fps=391 q=-0.0 size=N/A time=00:01:07.23 bitrate=N/A speed=16.3x    frame= 1849 fps=399 q=-0.0 size=N/A time=00:01:17.11 bitrate=N/A speed=16.6x    frame= 2062 fps=400 q=-0.0 size=N/A time=00:01:26.00 bitrate=N/A speed=16.7x    frame= 2263 fps=399 q=-0.0 size=N/A time=00:01:34.38 bitrate=N/A speed=16.7x    frame= 2477 fps=401 q=-0.0 size=N/A time=00:01:43.31 bitrate=N/A speed=16.7x    frame= 2693 fps=402 q=-0.0 size=N/A time=00:01:52.32 bitrate=N/A speed=16.8x    frame= 2898 fps=402 q=-0.0 size=N/A time=00:02:00.87 bitrate=N/A speed=16.8x    frame= 3148 fps=407 q=-0.0 size=N/A time=00:02:11.29 bitrate=N/A speed=  17x    frame= 3371 fps=409 q=-0.0 size=N/A time=00:02:20.59 bitrate=N/A speed=17.1x    frame= 3584 fps=409 q=-0.0 size=N/A time=00:02:29.48 bitrate=N/A speed=  17x    frame= 3803 fps=410 q=-0.0 size=N/A time=00:02:38.61 bitrate=N/A speed=17.1x    frame= 4033 fps=412 q=-0.0 size=N/A time=00:02:48.20 bitrate=N/A speed=17.2x    frame= 4222 fps=409 q=-0.0 size=N/A time=00:02:56.09 bitrate=N/A speed=17.1x    frame= 4402 fps=407 q=-0.0 size=N/A time=00:03:03.60 bitrate=N/A speed=  17x    frame= 4594 fps=405 q=-0.0 size=N/A time=00:03:11.60 bitrate=N/A speed=16.9x    frame= 4773 fps=403 q=-0.0 size=N/A time=00:03:19.07 bitrate=N/A speed=16.8x    frame= 4941 fps=399 q=-0.0 size=N/A time=00:03:26.08 bitrate=N/A speed=16.7x    frame= 5139 fps=399 q=-0.0 size=N/A time=00:03:34.33 bitrate=N/A speed=16.6x    frame= 5317 fps=397 q=-0.0 size=N/A time=00:03:41.76 bitrate=N/A speed=16.5x    frame= 5532 fps=398 q=-0.0 size=N/A time=00:03:50.73 bitrate=N/A speed=16.6x    frame= 5764 fps=399 q=-0.0 size=N/A time=00:04:00.40 bitrate=N/A speed=16.7x    frame= 6018 fps=403 q=-0.0 size=N/A time=00:04:11.00 bitrate=N/A speed=16.8x    frame= 6310 fps=408 q=-0.0 size=N/A time=00:04:23.17 bitrate=N/A speed=  17x    frame= 6586 fps=412 q=-0.0 size=N/A time=00:04:34.69 bitrate=N/A speed=17.2x    frame= 6857 fps=415 q=-0.0 size=N/A time=00:04:45.99 bitrate=N/A speed=17.3x    frame= 7127 fps=419 q=-0.0 size=N/A time=00:04:57.25 bitrate=N/A speed=17.5x    frame= 7405 fps=422 q=-0.0 size=N/A time=00:05:08.85 bitrate=N/A speed=17.6x    frame= 7663 fps=424 q=-0.0 size=N/A time=00:05:19.61 bitrate=N/A speed=17.7x    frame= 7941 fps=427 q=-0.0 size=N/A time=00:05:31.20 bitrate=N/A speed=17.8x    frame= 8156 fps=427 q=-0.0 size=N/A time=00:05:40.17 bitrate=N/A speed=17.8x    frame= 8341 fps=425 q=-0.0 size=N/A time=00:05:47.88 bitrate=N/A speed=17.7x    frame= 8543 fps=424 q=-0.0 size=N/A time=00:05:56.31 bitrate=N/A speed=17.7x    frame= 8751 fps=424 q=-0.0 size=N/A time=00:06:04.98 bitrate=N/A speed=17.7x    frame= 8982 fps=424 q=-0.0 size=N/A time=00:06:14.62 bitrate=N/A speed=17.7x    frame= 9199 fps=424 q=-0.0 size=N/A time=00:06:23.67 bitrate=N/A speed=17.7x    frame= 9432 fps=425 q=-0.0 size=N/A time=00:06:33.39 bitrate=N/A speed=17.7x    frame= 9656 fps=425 q=-0.0 size=N/A time=00:06:42.73 bitrate=N/A speed=17.7x    frame= 9930 fps=427 q=-0.0 size=N/A time=00:06:54.16 bitrate=N/A speed=17.8x    frame=10187 fps=429 q=-0.0 size=N/A time=00:07:04.88 bitrate=N/A speed=17.9x    frame=10464 fps=431 q=-0.0 size=N/A time=00:07:16.43 bitrate=N/A speed=  18x    frame=10727 fps=433 q=-0.0 size=N/A time=00:07:27.40 bitrate=N/A speed=18.1x    frame=11013 fps=436 q=-0.0 size=N/A time=00:07:39.33 bitrate=N/A speed=18.2x    frame=11291 fps=437 q=-0.0 size=N/A time=00:07:50.92 bitrate=N/A speed=18.2x    frame=11556 fps=439 q=-0.0 size=N/A time=00:08:01.98 bitrate=N/A speed=18.3x    frame=11807 fps=440 q=-0.0 size=N/A time=00:08:12.45 bitrate=N/A speed=18.3x    frame=12083 fps=442 q=-0.0 size=N/A time=00:08:23.96 bitrate=N/A speed=18.4x    frame=12358 fps=443 q=-0.0 size=N/A time=00:08:35.43 bitrate=N/A speed=18.5x    frame=12632 fps=445 q=-0.0 size=N/A time=00:08:46.85 bitrate=N/A speed=18.6x    frame=12907 fps=447 q=-0.0 size=N/A time=00:08:58.32 bitrate=N/A speed=18.6x    frame=13158 fps=447 q=-0.0 size=N/A time=00:09:08.79 bitrate=N/A speed=18.6x    frame=13383 fps=447 q=-0.0 size=N/A time=00:09:18.18 bitrate=N/A speed=18.6x    frame=13628 fps=448 q=-0.0 size=N/A time=00:09:28.40 bitrate=N/A speed=18.7x    frame=13829 fps=447 q=-0.0 size=N/A time=00:09:36.78 bitrate=N/A speed=18.6x    frame=14040 fps=446 q=-0.0 size=N/A time=00:09:45.58 bitrate=N/A speed=18.6x    frame=14277 fps=446 q=-0.0 size=N/A time=00:09:55.46 bitrate=N/A speed=18.6x    frame=14501 fps=446 q=-0.0 size=N/A time=00:10:04.81 bitrate=N/A speed=18.6x    frame=14722 fps=446 q=-0.0 size=N/A time=00:10:14.03 bitrate=N/A speed=18.6x    frame=14983 fps=447 q=-0.0 size=N/A time=00:10:24.91 bitrate=N/A speed=18.6x    frame=15203 fps=446 q=-0.0 size=N/A time=00:10:34.09 bitrate=N/A speed=18.6x    frame=15402 fps=445 q=-0.0 size=N/A time=00:10:42.39 bitrate=N/A speed=18.6x    frame=15650 fps=446 q=-0.0 size=N/A time=00:10:52.73 bitrate=N/A speed=18.6x    frame=15887 fps=446 q=-0.0 size=N/A time=00:11:02.62 bitrate=N/A speed=18.6x    frame=16091 fps=445 q=-0.0 size=N/A time=00:11:11.12 bitrate=N/A speed=18.6x    frame=16311 fps=445 q=-0.0 size=N/A time=00:11:20.30 bitrate=N/A speed=18.6x    frame=16548 fps=445 q=-0.0 size=N/A time=00:11:30.18 bitrate=N/A speed=18.6x    frame=16778 fps=445 q=-0.0 size=N/A time=00:11:39.78 bitrate=N/A speed=18.6x    frame=16940 fps=444 q=-0.0 size=N/A time=00:11:46.53 bitrate=N/A speed=18.5x    frame=17217 fps=445 q=-0.0 size=N/A time=00:11:58.09 bitrate=N/A speed=18.6x    frame=17498 fps=446 q=-0.0 size=N/A time=00:12:09.81 bitrate=N/A speed=18.6x    frame=17778 fps=448 q=-0.0 size=N/A time=00:12:21.49 bitrate=N/A speed=18.7x    frame=18041 fps=448 q=-0.0 size=N/A time=00:12:32.46 bitrate=N/A speed=18.7x    frame=18264 fps=448 q=-0.0 size=N/A time=00:12:41.76 bitrate=N/A speed=18.7x    frame=18427 fps=446 q=-0.0 size=N/A time=00:12:48.55 bitrate=N/A speed=18.6x    frame=18668 fps=446 q=-0.0 size=N/A time=00:12:58.61 bitrate=N/A speed=18.6x    frame=18901 fps=447 q=-0.0 size=N/A time=00:13:08.32 bitrate=N/A speed=18.6x    frame=19133 fps=447 q=-0.0 size=N/A time=00:13:18.00 bitrate=N/A speed=18.6x    frame=19402 fps=447 q=-0.0 size=N/A time=00:13:29.22 bitrate=N/A speed=18.7x    frame=19662 fps=448 q=-0.0 size=N/A time=00:13:40.06 bitrate=N/A speed=18.7x    frame=19926 fps=449 q=-0.0 size=N/A time=00:13:51.08 bitrate=N/A speed=18.7x    frame=20157 fps=449 q=-0.0 size=N/A time=00:14:00.71 bitrate=N/A speed=18.7x    frame=20386 fps=449 q=-0.0 size=N/A time=00:14:10.26 bitrate=N/A speed=18.7x    frame=20597 fps=448 q=-0.0 size=N/A time=00:14:19.06 bitrate=N/A speed=18.7x    frame=20784 fps=447 q=-0.0 size=N/A time=00:14:26.86 bitrate=N/A speed=18.7x    frame=20983 fps=447 q=-0.0 size=N/A time=00:14:35.16 bitrate=N/A speed=18.6x    frame=21193 fps=446 q=-0.0 size=N/A time=00:14:43.92 bitrate=N/A speed=18.6x    frame=21414 fps=446 q=-0.0 size=N/A time=00:14:53.14 bitrate=N/A speed=18.6x    frame=21620 fps=446 q=-0.0 size=N/A time=00:15:01.73 bitrate=N/A speed=18.6x    frame=21840 fps=445 q=-0.0 size=N/A time=00:15:10.91 bitrate=N/A speed=18.6x    frame=22007 fps=444 q=-0.0 size=N/A time=00:15:17.87 bitrate=N/A speed=18.5x    frame=22177 fps=443 q=-0.0 size=N/A time=00:15:24.96 bitrate=N/A speed=18.5x    frame=22393 fps=443 q=-0.0 size=N/A time=00:15:33.97 bitrate=N/A speed=18.5x    frame=22594 fps=442 q=-0.0 size=N/A time=00:15:42.35 bitrate=N/A speed=18.4x    frame=22835 fps=442 q=-0.0 size=N/A time=00:15:52.40 bitrate=N/A speed=18.5x    frame=23091 fps=443 q=-0.0 size=N/A time=00:16:03.08 bitrate=N/A speed=18.5x    frame=23349 fps=444 q=-0.0 size=N/A time=00:16:13.84 bitrate=N/A speed=18.5x    frame=23601 fps=444 q=-0.0 size=N/A time=00:16:24.35 bitrate=N/A speed=18.5x    frame=23871 fps=445 q=-0.0 size=N/A time=00:16:35.61 bitrate=N/A speed=18.6x    frame=24100 fps=445 q=-0.0 size=N/A time=00:16:45.17 bitrate=N/A speed=18.6x    frame=24331 fps=445 q=-0.0 size=N/A time=00:16:54.80 bitrate=N/A speed=18.6x    frame=24543 fps=445 q=-0.0 size=N/A time=00:17:03.64 bitrate=N/A speed=18.5x    frame=24786 fps=445 q=-0.0 size=N/A time=00:17:13.78 bitrate=N/A speed=18.5x    frame=25029 fps=445 q=-0.0 size=N/A time=00:17:23.91 bitrate=N/A speed=18.6x    frame=25273 fps=445 q=-0.0 size=N/A time=00:17:34.09 bitrate=N/A speed=18.6x    frame=25542 fps=446 q=-0.0 size=N/A time=00:17:45.31 bitrate=N/A speed=18.6x    frame=25769 fps=446 q=-0.0 size=N/A time=00:17:54.78 bitrate=N/A speed=18.6x    frame=26008 fps=446 q=-0.0 size=N/A time=00:18:04.75 bitrate=N/A speed=18.6x    frame=26213 fps=445 q=-0.0 size=N/A time=00:18:13.30 bitrate=N/A speed=18.6x    frame=26454 fps=446 q=-0.0 size=N/A time=00:18:23.35 bitrate=N/A speed=18.6x    frame=26698 fps=446 q=-0.0 size=N/A time=00:18:33.52 bitrate=N/A speed=18.6x    frame=26916 fps=446 q=-0.0 size=N/A time=00:18:42.62 bitrate=N/A speed=18.6x    frame=27154 fps=446 q=-0.0 size=N/A time=00:18:52.54 bitrate=N/A speed=18.6x    frame=27369 fps=446 q=-0.0 size=N/A time=00:19:01.51 bitrate=N/A speed=18.6x    frame=27565 fps=445 q=-0.0 size=N/A time=00:19:09.69 bitrate=N/A speed=18.6x    frame=27763 fps=445 q=-0.0 size=N/A time=00:19:17.94 bitrate=N/A speed=18.5x    frame=27980 fps=444 q=-0.0 size=N/A time=00:19:26.99 bitrate=N/A speed=18.5x    frame=28154 fps=444 q=-0.0 size=N/A time=00:19:34.25 bitrate=N/A speed=18.5x    frame=28325 fps=443 q=-0.0 size=N/A time=00:19:41.38 bitrate=N/A speed=18.5x    frame=28533 fps=442 q=-0.0 size=N/A time=00:19:50.06 bitrate=N/A speed=18.4x    frame=28733 fps=442 q=-0.0 size=N/A time=00:19:58.40 bitrate=N/A speed=18.4x    frame=28970 fps=442 q=-0.0 size=N/A time=00:20:08.29 bitrate=N/A speed=18.4x    frame=29213 fps=442 q=-0.0 size=N/A time=00:20:18.42 bitrate=N/A speed=18.4x    frame=29425 fps=442 q=-0.0 size=N/A time=00:20:27.26 bitrate=N/A speed=18.4x    frame=29673 fps=442 q=-0.0 size=N/A time=00:20:37.61 bitrate=N/A speed=18.4x    frame=29955 fps=443 q=-0.0 size=N/A time=00:20:49.37 bitrate=N/A speed=18.5x    frame=30203 fps=443 q=-0.0 size=N/A time=00:20:59.71 bitrate=N/A speed=18.5x    frame=30455 fps=444 q=-0.0 size=N/A time=00:21:10.22 bitrate=N/A speed=18.5x    frame=30673 fps=444 q=-0.0 size=N/A time=00:21:19.31 bitrate=N/A speed=18.5x    frame=30895 fps=443 q=-0.0 size=N/A time=00:21:28.57 bitrate=N/A speed=18.5x    frame=31135 fps=444 q=-0.0 size=N/A time=00:21:38.58 bitrate=N/A speed=18.5x    frame=31361 fps=444 q=-0.0 size=N/A time=00:21:48.01 bitrate=N/A speed=18.5x    frame=31564 fps=443 q=-0.0 size=N/A time=00:21:56.48 bitrate=N/A speed=18.5x    frame=31797 fps=443 q=-0.0 size=N/A time=00:22:06.19 bitrate=N/A speed=18.5x    frame=32032 fps=443 q=-0.0 size=N/A time=00:22:16.00 bitrate=N/A speed=18.5x    frame=32264 fps=443 q=-0.0 size=N/A time=00:22:25.67 bitrate=N/A speed=18.5x    frame=32523 fps=444 q=-0.0 size=N/A time=00:22:36.48 bitrate=N/A speed=18.5x    frame=32780 fps=444 q=-0.0 size=N/A time=00:22:47.19 bitrate=N/A speed=18.5x    frame=33030 fps=444 q=-0.0 size=N/A time=00:22:57.62 bitrate=N/A speed=18.5x    frame=33281 fps=445 q=-0.0 size=N/A time=00:23:08.09 bitrate=N/A speed=18.5x    frame=33482 fps=444 q=-0.0 size=N/A time=00:23:16.47 bitrate=N/A speed=18.5x    frame=33718 fps=444 q=-0.0 size=N/A time=00:23:26.32 bitrate=N/A speed=18.5x    frame=33935 fps=444 q=-0.0 size=N/A time=00:23:35.37 bitrate=N/A speed=18.5x    frame=34149 fps=444 q=-0.0 size=N/A time=00:23:44.29 bitrate=N/A speed=18.5x    frame=34351 fps=444 q=-0.0 size=N/A time=00:23:52.72 bitrate=N/A speed=18.5x    frame=34571 fps=444 q=-0.0 size=N/A time=00:24:01.89 bitrate=N/A speed=18.5x    [Parsed_psnr_10 @ 000001fa1f602340] PSNR y:48.489458 u:50.157340 v:49.587677 average:48.900900 min:37.455424 max:inf
[out#0/null @ 000001fa13044500] video:14920KiB audio:271564KiB subtitle:0KiB other streams:0KiB global headers:0KiB muxing overhead: unknown
frame=34724 fps=444 q=-0.0 Lsize=N/A time=00:24:08.28 bitrate=N/A speed=18.5x    
